<?xml version="1.0" encoding="utf-8"?>
<svg version="1.1" xmlns:xlink="http://www.w3.org/1999/xlink" width="12px" height="12px" viewBox="341 360  12 12" xmlns="http://www.w3.org/2000/svg">
  <path d="M 347 360  C 350.36 360  353 362.64  353 366  C 353 369.36  350.36 372  347 372  C 343.64 372  341 369.36  341 366  C 341 362.64  343.64 360  347 360  Z " fill-rule="nonzero" fill="#ffffff" stroke="none" />
  <path d="M 347 360.5  C 350.08 360.5  352.5 362.92  352.5 366  C 352.5 369.08  350.08 371.5  347 371.5  C 343.92 371.5  341.5 369.08  341.5 366  C 341.5 362.92  343.92 360.5  347 360.5  Z " stroke-width="1" stroke="#797979" fill="none" />
  <path d="M 347 369  C 345.32 369  344 367.68  344 366  C 344 364.32  345.32 363  347 363  C 348.68 363  350 364.32  350 366  C 350 367.68  348.68 369  347 369  " fill-rule="nonzero" fill="#797979" stroke="none" />
</svg>