<?xml version="1.0" encoding="utf-8"?>
<svg version="1.1" xmlns:xlink="http://www.w3.org/1999/xlink" width="12px" height="12px" viewBox="341 399  12 12" xmlns="http://www.w3.org/2000/svg">
  <path d="M 347 399  C 350.36 399  353 401.64  353 405  C 353 408.36  350.36 411  347 411  C 343.64 411  341 408.36  341 405  C 341 401.64  343.64 399  347 399  Z " fill-rule="nonzero" fill="#ffffff" stroke="none" />
  <path d="M 347 399.5  C 350.08 399.5  352.5 401.92  352.5 405  C 352.5 408.08  350.08 410.5  347 410.5  C 343.92 410.5  341.5 408.08  341.5 405  C 341.5 401.92  343.92 399.5  347 399.5  Z " stroke-width="1" stroke="#797979" fill="none" />
  <path d="M 347 408  C 345.32 408  344 406.68  344 405  C 344 403.32  345.32 402  347 402  C 348.68 402  350 403.32  350 405  C 350 406.68  348.68 408  347 408  " fill-rule="nonzero" fill="#797979" stroke="none" />
</svg>