<?xml version="1.0" encoding="utf-8"?>
<svg version="1.1" xmlns:xlink="http://www.w3.org/1999/xlink" width="12px" height="12px" viewBox="341 947  12 12" xmlns="http://www.w3.org/2000/svg">
  <path d="M 347 947  C 350.36 947  353 949.64  353 953  C 353 956.36  350.36 959  347 959  C 343.64 959  341 956.36  341 953  C 341 949.64  343.64 947  347 947  Z " fill-rule="nonzero" fill="#ffffff" stroke="none" />
  <path d="M 347 947.5  C 350.08 947.5  352.5 949.92  352.5 953  C 352.5 956.08  350.08 958.5  347 958.5  C 343.92 958.5  341.5 956.08  341.5 953  C 341.5 949.92  343.92 947.5  347 947.5  Z " stroke-width="1" stroke="#797979" fill="none" />
  <path d="M 347 956  C 345.32 956  344 954.68  344 953  C 344 951.32  345.32 950  347 950  C 348.68 950  350 951.32  350 953  C 350 954.68  348.68 956  347 956  " fill-rule="nonzero" fill="#797979" stroke="none" />
</svg>