<?xml version="1.0" encoding="utf-8"?>
<svg version="1.1" xmlns:xlink="http://www.w3.org/1999/xlink" width="12px" height="12px" viewBox="341 986  12 12" xmlns="http://www.w3.org/2000/svg">
  <path d="M 347 986  C 350.36 986  353 988.64  353 992  C 353 995.36  350.36 998  347 998  C 343.64 998  341 995.36  341 992  C 341 988.64  343.64 986  347 986  Z " fill-rule="nonzero" fill="#ffffff" stroke="none" />
  <path d="M 347 986.5  C 350.08 986.5  352.5 988.92  352.5 992  C 352.5 995.08  350.08 997.5  347 997.5  C 343.92 997.5  341.5 995.08  341.5 992  C 341.5 988.92  343.92 986.5  347 986.5  Z " stroke-width="1" stroke="#797979" fill="none" />
  <path d="M 347 995  C 345.32 995  344 993.68  344 992  C 344 990.32  345.32 989  347 989  C 348.68 989  350 990.32  350 992  C 350 993.68  348.68 995  347 995  " fill-rule="nonzero" fill="#797979" stroke="none" />
</svg>