<?xml version="1.0" encoding="utf-8"?>
<svg version="1.1" xmlns:xlink="http://www.w3.org/1999/xlink" width="12px" height="12px" viewBox="361 707  12 12" xmlns="http://www.w3.org/2000/svg">
  <path d="M 367 707  C 370.36 707  373 709.64  373 713  C 373 716.36  370.36 719  367 719  C 363.64 719  361 716.36  361 713  C 361 709.64  363.64 707  367 707  Z " fill-rule="nonzero" fill="#ffffff" stroke="none" />
  <path d="M 367 707.5  C 370.08 707.5  372.5 709.92  372.5 713  C 372.5 716.08  370.08 718.5  367 718.5  C 363.92 718.5  361.5 716.08  361.5 713  C 361.5 709.92  363.92 707.5  367 707.5  Z " stroke-width="1" stroke="#797979" fill="none" />
  <path d="M 367 716  C 365.32 716  364 714.68  364 713  C 364 711.32  365.32 710  367 710  C 368.68 710  370 711.32  370 713  C 370 714.68  368.68 716  367 716  " fill-rule="nonzero" fill="#797979" stroke="none" />
</svg>