<?xml version="1.0" encoding="utf-8"?>
<svg version="1.1" xmlns:xlink="http://www.w3.org/1999/xlink" width="12px" height="12px" viewBox="474 707  12 12" xmlns="http://www.w3.org/2000/svg">
  <path d="M 480 707  C 483.36 707  486 709.64  486 713  C 486 716.36  483.36 719  480 719  C 476.64 719  474 716.36  474 713  C 474 709.64  476.64 707  480 707  Z " fill-rule="nonzero" fill="#ffffff" stroke="none" />
  <path d="M 480 707.5  C 483.08 707.5  485.5 709.92  485.5 713  C 485.5 716.08  483.08 718.5  480 718.5  C 476.92 718.5  474.5 716.08  474.5 713  C 474.5 709.92  476.92 707.5  480 707.5  Z " stroke-width="1" stroke="#797979" fill="none" />
  <path d="M 480 716  C 478.32 716  477 714.68  477 713  C 477 711.32  478.32 710  480 710  C 481.68 710  483 711.32  483 713  C 483 714.68  481.68 716  480 716  " fill-rule="nonzero" fill="#797979" stroke="none" />
</svg>