<?xml version="1.0" encoding="utf-8"?>
<svg version="1.1" xmlns:xlink="http://www.w3.org/1999/xlink" width="12px" height="12px" viewBox="364 499  12 12" xmlns="http://www.w3.org/2000/svg">
  <path d="M 370 499  C 373.36 499  376 501.64  376 505  C 376 508.36  373.36 511  370 511  C 366.64 511  364 508.36  364 505  C 364 501.64  366.64 499  370 499  Z " fill-rule="nonzero" fill="#ffffff" stroke="none" />
  <path d="M 370 499.5  C 373.08 499.5  375.5 501.92  375.5 505  C 375.5 508.08  373.08 510.5  370 510.5  C 366.92 510.5  364.5 508.08  364.5 505  C 364.5 501.92  366.92 499.5  370 499.5  Z " stroke-width="1" stroke="#797979" fill="none" />
  <path d="M 370 508  C 368.32 508  367 506.68  367 505  C 367 503.32  368.32 502  370 502  C 371.68 502  373 503.32  373 505  C 373 506.68  371.68 508  370 508  " fill-rule="nonzero" fill="#797979" stroke="none" />
</svg>