<?xml version="1.0" encoding="utf-8"?>
<svg version="1.1" xmlns:xlink="http://www.w3.org/1999/xlink" width="12px" height="12px" viewBox="314 1466  12 12" xmlns="http://www.w3.org/2000/svg">
  <path d="M 320 1466  C 323.36 1466  326 1468.64  326 1472  C 326 1475.36  323.36 1478  320 1478  C 316.64 1478  314 1475.36  314 1472  C 314 1468.64  316.64 1466  320 1466  Z " fill-rule="nonzero" fill="#ffffff" stroke="none" />
  <path d="M 320 1466.5  C 323.08 1466.5  325.5 1468.92  325.5 1472  C 325.5 1475.08  323.08 1477.5  320 1477.5  C 316.92 1477.5  314.5 1475.08  314.5 1472  C 314.5 1468.92  316.92 1466.5  320 1466.5  Z " stroke-width="1" stroke="#797979" fill="none" />
  <path d="M 320 1475  C 318.32 1475  317 1473.68  317 1472  C 317 1470.32  318.32 1469  320 1469  C 321.68 1469  323 1470.32  323 1472  C 323 1473.68  321.68 1475  320 1475  " fill-rule="nonzero" fill="#797979" stroke="none" />
</svg>