<?xml version="1.0" encoding="utf-8"?>
<svg version="1.1" xmlns:xlink="http://www.w3.org/1999/xlink" width="12px" height="12px" viewBox="240 1951  12 12" xmlns="http://www.w3.org/2000/svg">
  <path d="M 246 1951  C 249.36 1951  252 1953.64  252 1957  C 252 1960.36  249.36 1963  246 1963  C 242.64 1963  240 1960.36  240 1957  C 240 1953.64  242.64 1951  246 1951  Z " fill-rule="nonzero" fill="#ffffff" stroke="none" />
  <path d="M 246 1951.5  C 249.08 1951.5  251.5 1953.92  251.5 1957  C 251.5 1960.08  249.08 1962.5  246 1962.5  C 242.92 1962.5  240.5 1960.08  240.5 1957  C 240.5 1953.92  242.92 1951.5  246 1951.5  Z " stroke-width="1" stroke="#797979" fill="none" />
  <path d="M 246 1960  C 244.32 1960  243 1958.68  243 1957  C 243 1955.32  244.32 1954  246 1954  C 247.68 1954  249 1955.32  249 1957  C 249 1958.68  247.68 1960  246 1960  " fill-rule="nonzero" fill="#797979" stroke="none" />
</svg>