<?xml version="1.0" encoding="utf-8"?>
<svg version="1.1" xmlns:xlink="http://www.w3.org/1999/xlink" width="12px" height="12px" viewBox="314 1654  12 12" xmlns="http://www.w3.org/2000/svg">
  <path d="M 320 1654  C 323.36 1654  326 1656.64  326 1660  C 326 1663.36  323.36 1666  320 1666  C 316.64 1666  314 1663.36  314 1660  C 314 1656.64  316.64 1654  320 1654  Z " fill-rule="nonzero" fill="#ffffff" stroke="none" />
  <path d="M 320 1654.5  C 323.08 1654.5  325.5 1656.92  325.5 1660  C 325.5 1663.08  323.08 1665.5  320 1665.5  C 316.92 1665.5  314.5 1663.08  314.5 1660  C 314.5 1656.92  316.92 1654.5  320 1654.5  Z " stroke-width="1" stroke="#797979" fill="none" />
  <path d="M 320 1663  C 318.32 1663  317 1661.68  317 1660  C 317 1658.32  318.32 1657  320 1657  C 321.68 1657  323 1658.32  323 1660  C 323 1661.68  321.68 1663  320 1663  " fill-rule="nonzero" fill="#797979" stroke="none" />
</svg>