<?xml version="1.0" encoding="utf-8"?>
<svg version="1.1" xmlns:xlink="http://www.w3.org/1999/xlink" width="12px" height="12px" viewBox="314 1610  12 12" xmlns="http://www.w3.org/2000/svg">
  <path d="M 320 1610  C 323.36 1610  326 1612.64  326 1616  C 326 1619.36  323.36 1622  320 1622  C 316.64 1622  314 1619.36  314 1616  C 314 1612.64  316.64 1610  320 1610  Z " fill-rule="nonzero" fill="#ffffff" stroke="none" />
  <path d="M 320 1610.5  C 323.08 1610.5  325.5 1612.92  325.5 1616  C 325.5 1619.08  323.08 1621.5  320 1621.5  C 316.92 1621.5  314.5 1619.08  314.5 1616  C 314.5 1612.92  316.92 1610.5  320 1610.5  Z " stroke-width="1" stroke="#797979" fill="none" />
  <path d="M 320 1619  C 318.32 1619  317 1617.68  317 1616  C 317 1614.32  318.32 1613  320 1613  C 321.68 1613  323 1614.32  323 1616  C 323 1617.68  321.68 1619  320 1619  " fill-rule="nonzero" fill="#797979" stroke="none" />
</svg>