<?xml version="1.0" encoding="utf-8"?>
<svg version="1.1" xmlns:xlink="http://www.w3.org/1999/xlink" width="12px" height="12px" viewBox="314 1059  12 12" xmlns="http://www.w3.org/2000/svg">
  <path d="M 320 1059  C 323.36 1059  326 1061.64  326 1065  C 326 1068.36  323.36 1071  320 1071  C 316.64 1071  314 1068.36  314 1065  C 314 1061.64  316.64 1059  320 1059  Z " fill-rule="nonzero" fill="#ffffff" stroke="none" />
  <path d="M 320 1059.5  C 323.08 1059.5  325.5 1061.92  325.5 1065  C 325.5 1068.08  323.08 1070.5  320 1070.5  C 316.92 1070.5  314.5 1068.08  314.5 1065  C 314.5 1061.92  316.92 1059.5  320 1059.5  Z " stroke-width="1" stroke="#797979" fill="none" />
  <path d="M 320 1068  C 318.32 1068  317 1066.68  317 1065  C 317 1063.32  318.32 1062  320 1062  C 321.68 1062  323 1063.32  323 1065  C 323 1066.68  321.68 1068  320 1068  " fill-rule="nonzero" fill="#797979" stroke="none" />
</svg>