<?xml version="1.0" encoding="utf-8"?>
<svg version="1.1" xmlns:xlink="http://www.w3.org/1999/xlink" width="12px" height="12px" viewBox="414 1059  12 12" xmlns="http://www.w3.org/2000/svg">
  <path d="M 420 1059  C 423.36 1059  426 1061.64  426 1065  C 426 1068.36  423.36 1071  420 1071  C 416.64 1071  414 1068.36  414 1065  C 414 1061.64  416.64 1059  420 1059  Z " fill-rule="nonzero" fill="#ffffff" stroke="none" />
  <path d="M 420 1059.5  C 423.08 1059.5  425.5 1061.92  425.5 1065  C 425.5 1068.08  423.08 1070.5  420 1070.5  C 416.92 1070.5  414.5 1068.08  414.5 1065  C 414.5 1061.92  416.92 1059.5  420 1059.5  Z " stroke-width="1" stroke="#797979" fill="none" />
  <path d="M 420 1068  C 418.32 1068  417 1066.68  417 1065  C 417 1063.32  418.32 1062  420 1062  C 421.68 1062  423 1063.32  423 1065  C 423 1066.68  421.68 1068  420 1068  " fill-rule="nonzero" fill="#797979" stroke="none" />
</svg>