<?xml version="1.0" encoding="utf-8"?>
<svg version="1.1" xmlns:xlink="http://www.w3.org/1999/xlink" width="12px" height="12px" viewBox="314 924  12 12" xmlns="http://www.w3.org/2000/svg">
  <path d="M 320 924  C 323.36 924  326 926.64  326 930  C 326 933.36  323.36 936  320 936  C 316.64 936  314 933.36  314 930  C 314 926.64  316.64 924  320 924  Z " fill-rule="nonzero" fill="#ffffff" stroke="none" />
  <path d="M 320 924.5  C 323.08 924.5  325.5 926.92  325.5 930  C 325.5 933.08  323.08 935.5  320 935.5  C 316.92 935.5  314.5 933.08  314.5 930  C 314.5 926.92  316.92 924.5  320 924.5  Z " stroke-width="1" stroke="#797979" fill="none" />
  <path d="M 320 933  C 318.32 933  317 931.68  317 930  C 317 928.32  318.32 927  320 927  C 321.68 927  323 928.32  323 930  C 323 931.68  321.68 933  320 933  " fill-rule="nonzero" fill="#797979" stroke="none" />
</svg>