<?xml version="1.0" encoding="utf-8"?>
<svg version="1.1" xmlns:xlink="http://www.w3.org/1999/xlink" width="12px" height="12px" viewBox="223 1661  12 12" xmlns="http://www.w3.org/2000/svg">
  <path d="M 229 1661  C 232.36 1661  235 1663.64  235 1667  C 235 1670.36  232.36 1673  229 1673  C 225.64 1673  223 1670.36  223 1667  C 223 1663.64  225.64 1661  229 1661  Z " fill-rule="nonzero" fill="#ffffff" stroke="none" />
  <path d="M 229 1661.5  C 232.08 1661.5  234.5 1663.92  234.5 1667  C 234.5 1670.08  232.08 1672.5  229 1672.5  C 225.92 1672.5  223.5 1670.08  223.5 1667  C 223.5 1663.92  225.92 1661.5  229 1661.5  Z " stroke-width="1" stroke="#797979" fill="none" />
  <path d="M 229 1670  C 227.32 1670  226 1668.68  226 1667  C 226 1665.32  227.32 1664  229 1664  C 230.68 1664  232 1665.32  232 1667  C 232 1668.68  230.68 1670  229 1670  " fill-rule="nonzero" fill="#797979" stroke="none" />
</svg>