<?xml version="1.0" encoding="utf-8"?>
<svg version="1.1" xmlns:xlink="http://www.w3.org/1999/xlink" width="12px" height="12px" viewBox="314 1090  12 12" xmlns="http://www.w3.org/2000/svg">
  <path d="M 320 1090  C 323.36 1090  326 1092.64  326 1096  C 326 1099.36  323.36 1102  320 1102  C 316.64 1102  314 1099.36  314 1096  C 314 1092.64  316.64 1090  320 1090  Z " fill-rule="nonzero" fill="#ffffff" stroke="none" />
  <path d="M 320 1090.5  C 323.08 1090.5  325.5 1092.92  325.5 1096  C 325.5 1099.08  323.08 1101.5  320 1101.5  C 316.92 1101.5  314.5 1099.08  314.5 1096  C 314.5 1092.92  316.92 1090.5  320 1090.5  Z " stroke-width="1" stroke="#797979" fill="none" />
  <path d="M 320 1099  C 318.32 1099  317 1097.68  317 1096  C 317 1094.32  318.32 1093  320 1093  C 321.68 1093  323 1094.32  323 1096  C 323 1097.68  321.68 1099  320 1099  " fill-rule="nonzero" fill="#797979" stroke="none" />
</svg>