<?xml version="1.0" encoding="utf-8"?>
<svg version="1.1" xmlns:xlink="http://www.w3.org/1999/xlink" width="24px" height="32px" xmlns="http://www.w3.org/2000/svg">
  <g transform="matrix(1 0 0 1 -1493 -138 )">
    <path d="M 1505 168.073856936707  C 1500.6 160.81468119182  1494 156.459175744887  1494 149.2  C 1494 145.411428571429  1496.2 139  1505 139  C 1513.8 139  1516 145.411428571429  1516 149.2  C 1516 156.459175744887  1509.4 160.81468119182  1505 168.073856936707  Z " fill-rule="nonzero" fill="#0000ff" stroke="none" fill-opacity="0.6" />
    <path d="M 1505 170  C 1500.2 162  1493 157.2  1493 149.2  C 1493 145.04  1495.4 138  1505 138  C 1514.6 138  1517 145.04  1517 149.2  C 1517 157.2  1509.8 162  1505 170  Z M 1505 168.073856936707  C 1509.4 160.81468119182  1516 156.459175744887  1516 149.2  C 1516 145.411428571429  1513.8 139  1505 139  C 1496.2 139  1494 145.411428571429  1494 149.2  C 1494 156.459175744887  1500.6 160.81468119182  1505 168.073856936707  Z " fill-rule="nonzero" fill="#0000ff" stroke="none" fill-opacity="0.6" />
  </g>
</svg>