<?xml version="1.0" encoding="utf-8"?>
<svg version="1.1" xmlns:xlink="http://www.w3.org/1999/xlink" width="12px" height="12px" viewBox="237 358  12 12" xmlns="http://www.w3.org/2000/svg">
  <path d="M 243 358  C 246.36 358  249 360.64  249 364  C 249 367.36  246.36 370  243 370  C 239.64 370  237 367.36  237 364  C 237 360.64  239.64 358  243 358  Z " fill-rule="nonzero" fill="#ffffff" stroke="none" />
  <path d="M 243 358.5  C 246.08 358.5  248.5 360.92  248.5 364  C 248.5 367.08  246.08 369.5  243 369.5  C 239.92 369.5  237.5 367.08  237.5 364  C 237.5 360.92  239.92 358.5  243 358.5  Z " stroke-width="1" stroke="#797979" fill="none" />
  <path d="M 243 367  C 241.32 367  240 365.68  240 364  C 240 362.32  241.32 361  243 361  C 244.68 361  246 362.32  246 364  C 246 365.68  244.68 367  243 367  " fill-rule="nonzero" fill="#797979" stroke="none" />
</svg>