<?xml version="1.0" encoding="utf-8"?>
<svg version="1.1" xmlns:xlink="http://www.w3.org/1999/xlink" width="12px" height="12px" viewBox="390 358  12 12" xmlns="http://www.w3.org/2000/svg">
  <path d="M 396 358  C 399.36 358  402 360.64  402 364  C 402 367.36  399.36 370  396 370  C 392.64 370  390 367.36  390 364  C 390 360.64  392.64 358  396 358  Z " fill-rule="nonzero" fill="#ffffff" stroke="none" />
  <path d="M 396 358.5  C 399.08 358.5  401.5 360.92  401.5 364  C 401.5 367.08  399.08 369.5  396 369.5  C 392.92 369.5  390.5 367.08  390.5 364  C 390.5 360.92  392.92 358.5  396 358.5  Z " stroke-width="1" stroke="#797979" fill="none" />
  <path d="M 396 367  C 394.32 367  393 365.68  393 364  C 393 362.32  394.32 361  396 361  C 397.68 361  399 362.32  399 364  C 399 365.68  397.68 367  396 367  " fill-rule="nonzero" fill="#797979" stroke="none" />
</svg>