<?xml version="1.0" encoding="utf-8"?>
<svg version="1.1" xmlns:xlink="http://www.w3.org/1999/xlink" width="12px" height="12px" viewBox="454 886  12 12" xmlns="http://www.w3.org/2000/svg">
  <path d="M 460 886  C 463.36 886  466 888.64  466 892  C 466 895.36  463.36 898  460 898  C 456.64 898  454 895.36  454 892  C 454 888.64  456.64 886  460 886  Z " fill-rule="nonzero" fill="#ffffff" stroke="none" />
  <path d="M 460 886.5  C 463.08 886.5  465.5 888.92  465.5 892  C 465.5 895.08  463.08 897.5  460 897.5  C 456.92 897.5  454.5 895.08  454.5 892  C 454.5 888.92  456.92 886.5  460 886.5  Z " stroke-width="1" stroke="#797979" fill="none" />
  <path d="M 460 895  C 458.32 895  457 893.68  457 892  C 457 890.32  458.32 889  460 889  C 461.68 889  463 890.32  463 892  C 463 893.68  461.68 895  460 895  " fill-rule="nonzero" fill="#797979" stroke="none" />
</svg>