<?xml version="1.0" encoding="utf-8"?>
<svg version="1.1" xmlns:xlink="http://www.w3.org/1999/xlink" width="12px" height="12px" viewBox="341 886  12 12" xmlns="http://www.w3.org/2000/svg">
  <path d="M 347 886  C 350.36 886  353 888.64  353 892  C 353 895.36  350.36 898  347 898  C 343.64 898  341 895.36  341 892  C 341 888.64  343.64 886  347 886  Z " fill-rule="nonzero" fill="#ffffff" stroke="none" />
  <path d="M 347 886.5  C 350.08 886.5  352.5 888.92  352.5 892  C 352.5 895.08  350.08 897.5  347 897.5  C 343.92 897.5  341.5 895.08  341.5 892  C 341.5 888.92  343.92 886.5  347 886.5  Z " stroke-width="1" stroke="#797979" fill="none" />
  <path d="M 347 895  C 345.32 895  344 893.68  344 892  C 344 890.32  345.32 889  347 889  C 348.68 889  350 890.32  350 892  C 350 893.68  348.68 895  347 895  " fill-rule="nonzero" fill="#797979" stroke="none" />
</svg>