<?xml version="1.0" encoding="utf-8"?>
<svg version="1.1" xmlns:xlink="http://www.w3.org/1999/xlink" width="24px" height="32px" xmlns="http://www.w3.org/2000/svg">
  <g transform="matrix(1 0 0 1 -1493 -1022 )">
    <path d="M 1505 1052.07385693671  C 1500.6 1044.81468119182  1494 1040.45917574489  1494 1033.2  C 1494 1029.41142857143  1496.2 1023  1505 1023  C 1513.8 1023  1516 1029.41142857143  1516 1033.2  C 1516 1040.45917574489  1509.4 1044.81468119182  1505 1052.07385693671  Z " fill-rule="nonzero" fill="#6666ff" stroke="none" />
    <path d="M 1505 1054  C 1500.2 1046  1493 1041.2  1493 1033.2  C 1493 1029.04  1495.4 1022  1505 1022  C 1514.6 1022  1517 1029.04  1517 1033.2  C 1517 1041.2  1509.8 1046  1505 1054  Z M 1505 1052.07385693671  C 1509.4 1044.81468119182  1516 1040.45917574489  1516 1033.2  C 1516 1029.41142857143  1513.8 1023  1505 1023  C 1496.2 1023  1494 1029.41142857143  1494 1033.2  C 1494 1040.45917574489  1500.6 1044.81468119182  1505 1052.07385693671  Z " fill-rule="nonzero" fill="#0000ff" stroke="none" fill-opacity="0.6" />
  </g>
</svg>