<?xml version="1.0" encoding="utf-8"?>
<svg version="1.1" xmlns:xlink="http://www.w3.org/1999/xlink" width="12px" height="12px" viewBox="341 847  12 12" xmlns="http://www.w3.org/2000/svg">
  <path d="M 347 847  C 350.36 847  353 849.64  353 853  C 353 856.36  350.36 859  347 859  C 343.64 859  341 856.36  341 853  C 341 849.64  343.64 847  347 847  Z " fill-rule="nonzero" fill="#ffffff" stroke="none" />
  <path d="M 347 847.5  C 350.08 847.5  352.5 849.92  352.5 853  C 352.5 856.08  350.08 858.5  347 858.5  C 343.92 858.5  341.5 856.08  341.5 853  C 341.5 849.92  343.92 847.5  347 847.5  Z " stroke-width="1" stroke="#797979" fill="none" />
  <path d="M 347 856  C 345.32 856  344 854.68  344 853  C 344 851.32  345.32 850  347 850  C 348.68 850  350 851.32  350 853  C 350 854.68  348.68 856  347 856  " fill-rule="nonzero" fill="#797979" stroke="none" />
</svg>