<?xml version="1.0" encoding="utf-8"?>
<svg version="1.1" xmlns:xlink="http://www.w3.org/1999/xlink" width="12px" height="12px" viewBox="454 808  12 12" xmlns="http://www.w3.org/2000/svg">
  <path d="M 460 808  C 463.36 808  466 810.64  466 814  C 466 817.36  463.36 820  460 820  C 456.64 820  454 817.36  454 814  C 454 810.64  456.64 808  460 808  Z " fill-rule="nonzero" fill="#ffffff" stroke="none" />
  <path d="M 460 808.5  C 463.08 808.5  465.5 810.92  465.5 814  C 465.5 817.08  463.08 819.5  460 819.5  C 456.92 819.5  454.5 817.08  454.5 814  C 454.5 810.92  456.92 808.5  460 808.5  Z " stroke-width="1" stroke="#797979" fill="none" />
  <path d="M 460 817  C 458.32 817  457 815.68  457 814  C 457 812.32  458.32 811  460 811  C 461.68 811  463 812.32  463 814  C 463 815.68  461.68 817  460 817  " fill-rule="nonzero" fill="#797979" stroke="none" />
</svg>