<?xml version="1.0" encoding="utf-8"?>
<svg version="1.1" xmlns:xlink="http://www.w3.org/1999/xlink" width="12px" height="12px" viewBox="341 808  12 12" xmlns="http://www.w3.org/2000/svg">
  <path d="M 347 808  C 350.36 808  353 810.64  353 814  C 353 817.36  350.36 820  347 820  C 343.64 820  341 817.36  341 814  C 341 810.64  343.64 808  347 808  Z " fill-rule="nonzero" fill="#ffffff" stroke="none" />
  <path d="M 347 808.5  C 350.08 808.5  352.5 810.92  352.5 814  C 352.5 817.08  350.08 819.5  347 819.5  C 343.92 819.5  341.5 817.08  341.5 814  C 341.5 810.92  343.92 808.5  347 808.5  Z " stroke-width="1" stroke="#797979" fill="none" />
  <path d="M 347 817  C 345.32 817  344 815.68  344 814  C 344 812.32  345.32 811  347 811  C 348.68 811  350 812.32  350 814  C 350 815.68  348.68 817  347 817  " fill-rule="nonzero" fill="#797979" stroke="none" />
</svg>