<?xml version="1.0" encoding="utf-8"?>
<svg version="1.1" xmlns:xlink="http://www.w3.org/1999/xlink" width="12px" height="12px" viewBox="351 1028  12 12" xmlns="http://www.w3.org/2000/svg">
  <path d="M 357 1028  C 360.36 1028  363 1030.64  363 1034  C 363 1037.36  360.36 1040  357 1040  C 353.64 1040  351 1037.36  351 1034  C 351 1030.64  353.64 1028  357 1028  Z " fill-rule="nonzero" fill="#ffffff" stroke="none" />
  <path d="M 357 1028.5  C 360.08 1028.5  362.5 1030.92  362.5 1034  C 362.5 1037.08  360.08 1039.5  357 1039.5  C 353.92 1039.5  351.5 1037.08  351.5 1034  C 351.5 1030.92  353.92 1028.5  357 1028.5  Z " stroke-width="1" stroke="#797979" fill="none" />
  <path d="M 357 1037  C 355.32 1037  354 1035.68  354 1034  C 354 1032.32  355.32 1031  357 1031  C 358.68 1031  360 1032.32  360 1034  C 360 1035.68  358.68 1037  357 1037  " fill-rule="nonzero" fill="#797979" stroke="none" />
</svg>