<?xml version="1.0" encoding="utf-8"?>
<svg version="1.1" xmlns:xlink="http://www.w3.org/1999/xlink" width="12px" height="12px" viewBox="464 1028  12 12" xmlns="http://www.w3.org/2000/svg">
  <path d="M 470 1028  C 473.36 1028  476 1030.64  476 1034  C 476 1037.36  473.36 1040  470 1040  C 466.64 1040  464 1037.36  464 1034  C 464 1030.64  466.64 1028  470 1028  Z " fill-rule="nonzero" fill="#ffffff" stroke="none" />
  <path d="M 470 1028.5  C 473.08 1028.5  475.5 1030.92  475.5 1034  C 475.5 1037.08  473.08 1039.5  470 1039.5  C 466.92 1039.5  464.5 1037.08  464.5 1034  C 464.5 1030.92  466.92 1028.5  470 1028.5  Z " stroke-width="1" stroke="#797979" fill="none" />
  <path d="M 470 1037  C 468.32 1037  467 1035.68  467 1034  C 467 1032.32  468.32 1031  470 1031  C 471.68 1031  473 1032.32  473 1034  C 473 1035.68  471.68 1037  470 1037  " fill-rule="nonzero" fill="#797979" stroke="none" />
</svg>