<?xml version="1.0" encoding="utf-8"?>
<svg version="1.1" xmlns:xlink="http://www.w3.org/1999/xlink" width="12px" height="12px" viewBox="454 1024  12 12" xmlns="http://www.w3.org/2000/svg">
  <path d="M 460 1024  C 463.36 1024  466 1026.64  466 1030  C 466 1033.36  463.36 1036  460 1036  C 456.64 1036  454 1033.36  454 1030  C 454 1026.64  456.64 1024  460 1024  Z " fill-rule="nonzero" fill="#ffffff" stroke="none" />
  <path d="M 460 1024.5  C 463.08 1024.5  465.5 1026.92  465.5 1030  C 465.5 1033.08  463.08 1035.5  460 1035.5  C 456.92 1035.5  454.5 1033.08  454.5 1030  C 454.5 1026.92  456.92 1024.5  460 1024.5  Z " stroke-width="1" stroke="#797979" fill="none" />
  <path d="M 460 1033  C 458.32 1033  457 1031.68  457 1030  C 457 1028.32  458.32 1027  460 1027  C 461.68 1027  463 1028.32  463 1030  C 463 1031.68  461.68 1033  460 1033  " fill-rule="nonzero" fill="#797979" stroke="none" />
</svg>