<?xml version="1.0" encoding="utf-8"?>
<svg version="1.1" xmlns:xlink="http://www.w3.org/1999/xlink" width="12px" height="12px" viewBox="341 1024  12 12" xmlns="http://www.w3.org/2000/svg">
  <path d="M 347 1024  C 350.36 1024  353 1026.64  353 1030  C 353 1033.36  350.36 1036  347 1036  C 343.64 1036  341 1033.36  341 1030  C 341 1026.64  343.64 1024  347 1024  Z " fill-rule="nonzero" fill="#ffffff" stroke="none" />
  <path d="M 347 1024.5  C 350.08 1024.5  352.5 1026.92  352.5 1030  C 352.5 1033.08  350.08 1035.5  347 1035.5  C 343.92 1035.5  341.5 1033.08  341.5 1030  C 341.5 1026.92  343.92 1024.5  347 1024.5  Z " stroke-width="1" stroke="#797979" fill="none" />
  <path d="M 347 1033  C 345.32 1033  344 1031.68  344 1030  C 344 1028.32  345.32 1027  347 1027  C 348.68 1027  350 1028.32  350 1030  C 350 1031.68  348.68 1033  347 1033  " fill-rule="nonzero" fill="#797979" stroke="none" />
</svg>