<?xml version="1.0" encoding="utf-8"?>
<svg version="1.1" xmlns:xlink="http://www.w3.org/1999/xlink" width="12px" height="12px" viewBox="454 953  12 12" xmlns="http://www.w3.org/2000/svg">
  <path d="M 460 953  C 463.36 953  466 955.64  466 959  C 466 962.36  463.36 965  460 965  C 456.64 965  454 962.36  454 959  C 454 955.64  456.64 953  460 953  Z " fill-rule="nonzero" fill="#ffffff" stroke="none" />
  <path d="M 460 953.5  C 463.08 953.5  465.5 955.92  465.5 959  C 465.5 962.08  463.08 964.5  460 964.5  C 456.92 964.5  454.5 962.08  454.5 959  C 454.5 955.92  456.92 953.5  460 953.5  Z " stroke-width="1" stroke="#797979" fill="none" />
  <path d="M 460 962  C 458.32 962  457 960.68  457 959  C 457 957.32  458.32 956  460 956  C 461.68 956  463 957.32  463 959  C 463 960.68  461.68 962  460 962  " fill-rule="nonzero" fill="#797979" stroke="none" />
</svg>