<?xml version="1.0" encoding="utf-8"?>
<svg version="1.1" xmlns:xlink="http://www.w3.org/1999/xlink" width="12px" height="12px" viewBox="341 992  12 12" xmlns="http://www.w3.org/2000/svg">
  <path d="M 347 992  C 350.36 992  353 994.64  353 998  C 353 1001.36  350.36 1004  347 1004  C 343.64 1004  341 1001.36  341 998  C 341 994.64  343.64 992  347 992  Z " fill-rule="nonzero" fill="#ffffff" stroke="none" />
  <path d="M 347 992.5  C 350.08 992.5  352.5 994.92  352.5 998  C 352.5 1001.08  350.08 1003.5  347 1003.5  C 343.92 1003.5  341.5 1001.08  341.5 998  C 341.5 994.92  343.92 992.5  347 992.5  Z " stroke-width="1" stroke="#797979" fill="none" />
  <path d="M 347 1001  C 345.32 1001  344 999.68  344 998  C 344 996.32  345.32 995  347 995  C 348.68 995  350 996.32  350 998  C 350 999.68  348.68 1001  347 1001  " fill-rule="nonzero" fill="#797979" stroke="none" />
</svg>