<?xml version="1.0" encoding="utf-8"?>
<svg version="1.1" xmlns:xlink="http://www.w3.org/1999/xlink" width="12px" height="12px" viewBox="357 707  12 12" xmlns="http://www.w3.org/2000/svg">
  <path d="M 363 707  C 366.36 707  369 709.64  369 713  C 369 716.36  366.36 719  363 719  C 359.64 719  357 716.36  357 713  C 357 709.64  359.64 707  363 707  Z " fill-rule="nonzero" fill="#ffffff" stroke="none" />
  <path d="M 363 707.5  C 366.08 707.5  368.5 709.92  368.5 713  C 368.5 716.08  366.08 718.5  363 718.5  C 359.92 718.5  357.5 716.08  357.5 713  C 357.5 709.92  359.92 707.5  363 707.5  Z " stroke-width="1" stroke="#797979" fill="none" />
  <path d="M 363 716  C 361.32 716  360 714.68  360 713  C 360 711.32  361.32 710  363 710  C 364.68 710  366 711.32  366 713  C 366 714.68  364.68 716  363 716  " fill-rule="nonzero" fill="#797979" stroke="none" />
</svg>