<?xml version="1.0" encoding="utf-8"?>
<svg version="1.1" xmlns:xlink="http://www.w3.org/1999/xlink" width="12px" height="12px" viewBox="346 1582  12 12" xmlns="http://www.w3.org/2000/svg">
  <path d="M 352 1582  C 355.36 1582  358 1584.64  358 1588  C 358 1591.36  355.36 1594  352 1594  C 348.64 1594  346 1591.36  346 1588  C 346 1584.64  348.64 1582  352 1582  Z " fill-rule="nonzero" fill="#ffffff" stroke="none" />
  <path d="M 352 1582.5  C 355.08 1582.5  357.5 1584.92  357.5 1588  C 357.5 1591.08  355.08 1593.5  352 1593.5  C 348.92 1593.5  346.5 1591.08  346.5 1588  C 346.5 1584.92  348.92 1582.5  352 1582.5  Z " stroke-width="1" stroke="#797979" fill="none" />
  <path d="M 352 1591  C 350.32 1591  349 1589.68  349 1588  C 349 1586.32  350.32 1585  352 1585  C 353.68 1585  355 1586.32  355 1588  C 355 1589.68  353.68 1591  352 1591  " fill-rule="nonzero" fill="#797979" stroke="none" />
</svg>