<?xml version="1.0" encoding="utf-8"?>
<svg version="1.1" xmlns:xlink="http://www.w3.org/1999/xlink" width="12px" height="12px" viewBox="346 1629  12 12" xmlns="http://www.w3.org/2000/svg">
  <path d="M 352 1629  C 355.36 1629  358 1631.64  358 1635  C 358 1638.36  355.36 1641  352 1641  C 348.64 1641  346 1638.36  346 1635  C 346 1631.64  348.64 1629  352 1629  Z " fill-rule="nonzero" fill="#ffffff" stroke="none" />
  <path d="M 352 1629.5  C 355.08 1629.5  357.5 1631.92  357.5 1635  C 357.5 1638.08  355.08 1640.5  352 1640.5  C 348.92 1640.5  346.5 1638.08  346.5 1635  C 346.5 1631.92  348.92 1629.5  352 1629.5  Z " stroke-width="1" stroke="#797979" fill="none" />
  <path d="M 352 1638  C 350.32 1638  349 1636.68  349 1635  C 349 1633.32  350.32 1632  352 1632  C 353.68 1632  355 1633.32  355 1635  C 355 1636.68  353.68 1638  352 1638  " fill-rule="nonzero" fill="#797979" stroke="none" />
</svg>