<?xml version="1.0" encoding="utf-8"?>
<svg version="1.1" xmlns:xlink="http://www.w3.org/1999/xlink" width="12px" height="12px" viewBox="432 1703  12 12" xmlns="http://www.w3.org/2000/svg">
  <path d="M 438 1703  C 441.36 1703  444 1705.64  444 1709  C 444 1712.36  441.36 1715  438 1715  C 434.64 1715  432 1712.36  432 1709  C 432 1705.64  434.64 1703  438 1703  Z " fill-rule="nonzero" fill="#ffffff" stroke="none" />
  <path d="M 438 1703.5  C 441.08 1703.5  443.5 1705.92  443.5 1709  C 443.5 1712.08  441.08 1714.5  438 1714.5  C 434.92 1714.5  432.5 1712.08  432.5 1709  C 432.5 1705.92  434.92 1703.5  438 1703.5  Z " stroke-width="1" stroke="#797979" fill="none" />
  <path d="M 438 1712  C 436.32 1712  435 1710.68  435 1709  C 435 1707.32  436.32 1706  438 1706  C 439.68 1706  441 1707.32  441 1709  C 441 1710.68  439.68 1712  438 1712  " fill-rule="nonzero" fill="#797979" stroke="none" />
</svg>