<?xml version="1.0" encoding="utf-8"?>
<svg version="1.1" xmlns:xlink="http://www.w3.org/1999/xlink" width="12px" height="12px" viewBox="532 1703  12 12" xmlns="http://www.w3.org/2000/svg">
  <path d="M 538 1703  C 541.36 1703  544 1705.64  544 1709  C 544 1712.36  541.36 1715  538 1715  C 534.64 1715  532 1712.36  532 1709  C 532 1705.64  534.64 1703  538 1703  Z " fill-rule="nonzero" fill="#ffffff" stroke="none" />
  <path d="M 538 1703.5  C 541.08 1703.5  543.5 1705.92  543.5 1709  C 543.5 1712.08  541.08 1714.5  538 1714.5  C 534.92 1714.5  532.5 1712.08  532.5 1709  C 532.5 1705.92  534.92 1703.5  538 1703.5  Z " stroke-width="1" stroke="#797979" fill="none" />
  <path d="M 538 1712  C 536.32 1712  535 1710.68  535 1709  C 535 1707.32  536.32 1706  538 1706  C 539.68 1706  541 1707.32  541 1709  C 541 1710.68  539.68 1712  538 1712  " fill-rule="nonzero" fill="#797979" stroke="none" />
</svg>