<?xml version="1.0" encoding="utf-8"?>
<svg version="1.1" xmlns:xlink="http://www.w3.org/1999/xlink" width="24px" height="32px" xmlns="http://www.w3.org/2000/svg">
  <defs>
    <mask fill="white" id="clip57">
      <path d="M 24 11.2  C 24 13.4462141660816  23.4323837160107 15.4401544281679  22.5096491043644 17.3234860904807  C 20.1460199290495 22.1477309032932  15.4522715003511 26.2462141660816  12 32  C 7.20000000000005 24  0 19.2  0 11.2  C 0 7.04000000000002  2.40000000000009 0  12 0  C 21.5999999999999 0  24 7.04000000000002  24 11.2  Z " fill-rule="evenodd" />
    </mask>
  </defs>
  <g transform="matrix(1 0 0 1 -1475 -328 )">
    <path d="M 24 11.2  C 24 13.4462141660816  23.4323837160107 15.4401544281679  22.5096491043644 17.3234860904807  C 20.1460199290495 22.1477309032932  15.4522715003511 26.2462141660816  12 32  C 7.20000000000005 24  0 19.2  0 11.2  C 0 7.04000000000002  2.40000000000009 0  12 0  C 21.5999999999999 0  24 7.04000000000002  24 11.2  Z " fill-rule="nonzero" fill="#0000ff" stroke="none" fill-opacity="0.6" transform="matrix(1 0 0 1 1475 328 )" />
    <path d="M 24 11.2  C 24 13.4462141660816  23.4323837160107 15.4401544281679  22.5096491043644 17.3234860904807  C 20.1460199290495 22.1477309032932  15.4522715003511 26.2462141660816  12 32  C 7.20000000000005 24  0 19.2  0 11.2  C 0 7.04000000000002  2.40000000000009 0  12 0  C 21.5999999999999 0  24 7.04000000000002  24 11.2  Z " stroke-width="2" stroke="#0000ff" fill="none" stroke-opacity="0.6" transform="matrix(1 0 0 1 1475 328 )" mask="url(#clip57)" />
  </g>
</svg>