<?xml version="1.0" encoding="utf-8"?>
<svg version="1.1" xmlns:xlink="http://www.w3.org/1999/xlink" width="12px" height="12px" viewBox="314 809  12 12" xmlns="http://www.w3.org/2000/svg">
  <path d="M 320 809  C 323.36 809  326 811.64  326 815  C 326 818.36  323.36 821  320 821  C 316.64 821  314 818.36  314 815  C 314 811.64  316.64 809  320 809  Z " fill-rule="nonzero" fill="#ffffff" stroke="none" />
  <path d="M 320 809.5  C 323.08 809.5  325.5 811.92  325.5 815  C 325.5 818.08  323.08 820.5  320 820.5  C 316.92 820.5  314.5 818.08  314.5 815  C 314.5 811.92  316.92 809.5  320 809.5  Z " stroke-width="1" stroke="#797979" fill="none" />
  <path d="M 320 818  C 318.32 818  317 816.68  317 815  C 317 813.32  318.32 812  320 812  C 321.68 812  323 813.32  323 815  C 323 816.68  321.68 818  320 818  " fill-rule="nonzero" fill="#797979" stroke="none" />
</svg>