<?xml version="1.0" encoding="utf-8"?>
<svg version="1.1" xmlns:xlink="http://www.w3.org/1999/xlink" width="12px" height="12px" viewBox="314 1264  12 12" xmlns="http://www.w3.org/2000/svg">
  <path d="M 320 1264  C 323.36 1264  326 1266.64  326 1270  C 326 1273.36  323.36 1276  320 1276  C 316.64 1276  314 1273.36  314 1270  C 314 1266.64  316.64 1264  320 1264  Z " fill-rule="nonzero" fill="#ffffff" stroke="none" />
  <path d="M 320 1264.5  C 323.08 1264.5  325.5 1266.92  325.5 1270  C 325.5 1273.08  323.08 1275.5  320 1275.5  C 316.92 1275.5  314.5 1273.08  314.5 1270  C 314.5 1266.92  316.92 1264.5  320 1264.5  Z " stroke-width="1" stroke="#797979" fill="none" />
  <path d="M 320 1273  C 318.32 1273  317 1271.68  317 1270  C 317 1268.32  318.32 1267  320 1267  C 321.68 1267  323 1268.32  323 1270  C 323 1271.68  321.68 1273  320 1273  " fill-rule="nonzero" fill="#797979" stroke="none" />
</svg>