<?xml version="1.0" encoding="utf-8"?>
<svg version="1.1" xmlns:xlink="http://www.w3.org/1999/xlink" width="12px" height="12px" viewBox="314 1304  12 12" xmlns="http://www.w3.org/2000/svg">
  <path d="M 320 1304  C 323.36 1304  326 1306.64  326 1310  C 326 1313.36  323.36 1316  320 1316  C 316.64 1316  314 1313.36  314 1310  C 314 1306.64  316.64 1304  320 1304  Z " fill-rule="nonzero" fill="#ffffff" stroke="none" />
  <path d="M 320 1304.5  C 323.08 1304.5  325.5 1306.92  325.5 1310  C 325.5 1313.08  323.08 1315.5  320 1315.5  C 316.92 1315.5  314.5 1313.08  314.5 1310  C 314.5 1306.92  316.92 1304.5  320 1304.5  Z " stroke-width="1" stroke="#797979" fill="none" />
  <path d="M 320 1313  C 318.32 1313  317 1311.68  317 1310  C 317 1308.32  318.32 1307  320 1307  C 321.68 1307  323 1308.32  323 1310  C 323 1311.68  321.68 1313  320 1313  " fill-rule="nonzero" fill="#797979" stroke="none" />
</svg>