<?xml version="1.0" encoding="utf-8"?>
<svg version="1.1" xmlns:xlink="http://www.w3.org/1999/xlink" width="12px" height="12px" viewBox="414 1340  12 12" xmlns="http://www.w3.org/2000/svg">
  <path d="M 420 1340  C 423.36 1340  426 1342.64  426 1346  C 426 1349.36  423.36 1352  420 1352  C 416.64 1352  414 1349.36  414 1346  C 414 1342.64  416.64 1340  420 1340  Z " fill-rule="nonzero" fill="#ffffff" stroke="none" />
  <path d="M 420 1340.5  C 423.08 1340.5  425.5 1342.92  425.5 1346  C 425.5 1349.08  423.08 1351.5  420 1351.5  C 416.92 1351.5  414.5 1349.08  414.5 1346  C 414.5 1342.92  416.92 1340.5  420 1340.5  Z " stroke-width="1" stroke="#797979" fill="none" />
  <path d="M 420 1349  C 418.32 1349  417 1347.68  417 1346  C 417 1344.32  418.32 1343  420 1343  C 421.68 1343  423 1344.32  423 1346  C 423 1347.68  421.68 1349  420 1349  " fill-rule="nonzero" fill="#797979" stroke="none" />
</svg>