<?xml version="1.0" encoding="utf-8"?>
<svg version="1.1" xmlns:xlink="http://www.w3.org/1999/xlink" width="12px" height="12px" viewBox="314 1482  12 12" xmlns="http://www.w3.org/2000/svg">
  <path d="M 320 1482  C 323.36 1482  326 1484.64  326 1488  C 326 1491.36  323.36 1494  320 1494  C 316.64 1494  314 1491.36  314 1488  C 314 1484.64  316.64 1482  320 1482  Z " fill-rule="nonzero" fill="#ffffff" stroke="none" />
  <path d="M 320 1482.5  C 323.08 1482.5  325.5 1484.92  325.5 1488  C 325.5 1491.08  323.08 1493.5  320 1493.5  C 316.92 1493.5  314.5 1491.08  314.5 1488  C 314.5 1484.92  316.92 1482.5  320 1482.5  Z " stroke-width="1" stroke="#797979" fill="none" />
  <path d="M 320 1491  C 318.32 1491  317 1489.68  317 1488  C 317 1486.32  318.32 1485  320 1485  C 321.68 1485  323 1486.32  323 1488  C 323 1489.68  321.68 1491  320 1491  " fill-rule="nonzero" fill="#797979" stroke="none" />
</svg>