<?xml version="1.0" encoding="utf-8"?>
<svg version="1.1" xmlns:xlink="http://www.w3.org/1999/xlink" width="12px" height="12px" viewBox="240 1770  12 12" xmlns="http://www.w3.org/2000/svg">
  <path d="M 246 1770  C 249.36 1770  252 1772.64  252 1776  C 252 1779.36  249.36 1782  246 1782  C 242.64 1782  240 1779.36  240 1776  C 240 1772.64  242.64 1770  246 1770  Z " fill-rule="nonzero" fill="#ffffff" stroke="none" />
  <path d="M 246 1770.5  C 249.08 1770.5  251.5 1772.92  251.5 1776  C 251.5 1779.08  249.08 1781.5  246 1781.5  C 242.92 1781.5  240.5 1779.08  240.5 1776  C 240.5 1772.92  242.92 1770.5  246 1770.5  Z " stroke-width="1" stroke="#797979" fill="none" />
  <path d="M 246 1779  C 244.32 1779  243 1777.68  243 1776  C 243 1774.32  244.32 1773  246 1773  C 247.68 1773  249 1774.32  249 1776  C 249 1777.68  247.68 1779  246 1779  " fill-rule="nonzero" fill="#797979" stroke="none" />
</svg>