<?xml version="1.0" encoding="utf-8"?>
<svg version="1.1" xmlns:xlink="http://www.w3.org/1999/xlink" width="12px" height="12px" viewBox="240 2108  12 12" xmlns="http://www.w3.org/2000/svg">
  <path d="M 246 2108  C 249.36 2108  252 2110.64  252 2114  C 252 2117.36  249.36 2120  246 2120  C 242.64 2120  240 2117.36  240 2114  C 240 2110.64  242.64 2108  246 2108  Z " fill-rule="nonzero" fill="#ffffff" stroke="none" />
  <path d="M 246 2108.5  C 249.08 2108.5  251.5 2110.92  251.5 2114  C 251.5 2117.08  249.08 2119.5  246 2119.5  C 242.92 2119.5  240.5 2117.08  240.5 2114  C 240.5 2110.92  242.92 2108.5  246 2108.5  Z " stroke-width="1" stroke="#797979" fill="none" />
  <path d="M 246 2117  C 244.32 2117  243 2115.68  243 2114  C 243 2112.32  244.32 2111  246 2111  C 247.68 2111  249 2112.32  249 2114  C 249 2115.68  247.68 2117  246 2117  " fill-rule="nonzero" fill="#797979" stroke="none" />
</svg>