<?xml version="1.0" encoding="utf-8"?>
<svg version="1.1" xmlns:xlink="http://www.w3.org/1999/xlink" width="12px" height="12px" viewBox="414 1001  12 12" xmlns="http://www.w3.org/2000/svg">
  <path d="M 420 1001  C 423.36 1001  426 1003.64  426 1007  C 426 1010.36  423.36 1013  420 1013  C 416.64 1013  414 1010.36  414 1007  C 414 1003.64  416.64 1001  420 1001  Z " fill-rule="nonzero" fill="#ffffff" stroke="none" />
  <path d="M 420 1001.5  C 423.08 1001.5  425.5 1003.92  425.5 1007  C 425.5 1010.08  423.08 1012.5  420 1012.5  C 416.92 1012.5  414.5 1010.08  414.5 1007  C 414.5 1003.92  416.92 1001.5  420 1001.5  Z " stroke-width="1" stroke="#797979" fill="none" />
  <path d="M 420 1010  C 418.32 1010  417 1008.68  417 1007  C 417 1005.32  418.32 1004  420 1004  C 421.68 1004  423 1005.32  423 1007  C 423 1008.68  421.68 1010  420 1010  " fill-rule="nonzero" fill="#797979" stroke="none" />
</svg>