<?xml version="1.0" encoding="utf-8"?>
<svg version="1.1" xmlns:xlink="http://www.w3.org/1999/xlink" width="12px" height="12px" viewBox="414 1091  12 12" xmlns="http://www.w3.org/2000/svg">
  <path d="M 420 1091  C 423.36 1091  426 1093.64  426 1097  C 426 1100.36  423.36 1103  420 1103  C 416.64 1103  414 1100.36  414 1097  C 414 1093.64  416.64 1091  420 1091  Z " fill-rule="nonzero" fill="#ffffff" stroke="none" />
  <path d="M 420 1091.5  C 423.08 1091.5  425.5 1093.92  425.5 1097  C 425.5 1100.08  423.08 1102.5  420 1102.5  C 416.92 1102.5  414.5 1100.08  414.5 1097  C 414.5 1093.92  416.92 1091.5  420 1091.5  Z " stroke-width="1" stroke="#797979" fill="none" />
  <path d="M 420 1100  C 418.32 1100  417 1098.68  417 1097  C 417 1095.32  418.32 1094  420 1094  C 421.68 1094  423 1095.32  423 1097  C 423 1098.68  421.68 1100  420 1100  " fill-rule="nonzero" fill="#797979" stroke="none" />
</svg>