<?xml version="1.0" encoding="utf-8"?>
<svg version="1.1" xmlns:xlink="http://www.w3.org/1999/xlink" width="12px" height="12px" viewBox="314 1091  12 12" xmlns="http://www.w3.org/2000/svg">
  <path d="M 320 1091  C 323.36 1091  326 1093.64  326 1097  C 326 1100.36  323.36 1103  320 1103  C 316.64 1103  314 1100.36  314 1097  C 314 1093.64  316.64 1091  320 1091  Z " fill-rule="nonzero" fill="#ffffff" stroke="none" />
  <path d="M 320 1091.5  C 323.08 1091.5  325.5 1093.92  325.5 1097  C 325.5 1100.08  323.08 1102.5  320 1102.5  C 316.92 1102.5  314.5 1100.08  314.5 1097  C 314.5 1093.92  316.92 1091.5  320 1091.5  Z " stroke-width="1" stroke="#797979" fill="none" />
  <path d="M 320 1100  C 318.32 1100  317 1098.68  317 1097  C 317 1095.32  318.32 1094  320 1094  C 321.68 1094  323 1095.32  323 1097  C 323 1098.68  321.68 1100  320 1100  " fill-rule="nonzero" fill="#797979" stroke="none" />
</svg>