<?xml version="1.0" encoding="utf-8"?>
<svg version="1.1" xmlns:xlink="http://www.w3.org/1999/xlink" width="12px" height="12px" viewBox="970 457  12 12" xmlns="http://www.w3.org/2000/svg">
  <path d="M 976 457  C 979.36 457  982 459.64  982 463  C 982 466.36  979.36 469  976 469  C 972.64 469  970 466.36  970 463  C 970 459.64  972.64 457  976 457  Z " fill-rule="nonzero" fill="#ffffff" stroke="none" />
  <path d="M 976 457.5  C 979.08 457.5  981.5 459.92  981.5 463  C 981.5 466.08  979.08 468.5  976 468.5  C 972.92 468.5  970.5 466.08  970.5 463  C 970.5 459.92  972.92 457.5  976 457.5  Z " stroke-width="1" stroke="#797979" fill="none" />
  <path d="M 976 466  C 974.32 466  973 464.68  973 463  C 973 461.32  974.32 460  976 460  C 977.68 460  979 461.32  979 463  C 979 464.68  977.68 466  976 466  " fill-rule="nonzero" fill="#797979" stroke="none" />
</svg>