<?xml version="1.0" encoding="utf-8"?>
<svg version="1.1" xmlns:xlink="http://www.w3.org/1999/xlink" width="12px" height="12px" viewBox="676 457  12 12" xmlns="http://www.w3.org/2000/svg">
  <path d="M 682 457  C 685.36 457  688 459.64  688 463  C 688 466.36  685.36 469  682 469  C 678.64 469  676 466.36  676 463  C 676 459.64  678.64 457  682 457  Z " fill-rule="nonzero" fill="#ffffff" stroke="none" />
  <path d="M 682 457.5  C 685.08 457.5  687.5 459.92  687.5 463  C 687.5 466.08  685.08 468.5  682 468.5  C 678.92 468.5  676.5 466.08  676.5 463  C 676.5 459.92  678.92 457.5  682 457.5  Z " stroke-width="1" stroke="#797979" fill="none" />
  <path d="M 682 466  C 680.32 466  679 464.68  679 463  C 679 461.32  680.32 460  682 460  C 683.68 460  685 461.32  685 463  C 685 464.68  683.68 466  682 466  " fill-rule="nonzero" fill="#797979" stroke="none" />
</svg>