<?xml version="1.0" encoding="utf-8"?>
<svg version="1.1" xmlns:xlink="http://www.w3.org/1999/xlink" width="12px" height="12px" viewBox="376 681  12 12" xmlns="http://www.w3.org/2000/svg">
  <path d="M 382 681  C 385.36 681  388 683.64  388 687  C 388 690.36  385.36 693  382 693  C 378.64 693  376 690.36  376 687  C 376 683.64  378.64 681  382 681  Z " fill-rule="nonzero" fill="#ffffff" stroke="none" />
  <path d="M 382 681.5  C 385.08 681.5  387.5 683.92  387.5 687  C 387.5 690.08  385.08 692.5  382 692.5  C 378.92 692.5  376.5 690.08  376.5 687  C 376.5 683.92  378.92 681.5  382 681.5  Z " stroke-width="1" stroke="#797979" fill="none" />
  <path d="M 382 690  C 380.32 690  379 688.68  379 687  C 379 685.32  380.32 684  382 684  C 383.68 684  385 685.32  385 687  C 385 688.68  383.68 690  382 690  " fill-rule="nonzero" fill="#797979" stroke="none" />
</svg>