<?xml version="1.0" encoding="utf-8"?>
<svg version="1.1" xmlns:xlink="http://www.w3.org/1999/xlink" width="12px" height="12px" viewBox="686 467  12 12" xmlns="http://www.w3.org/2000/svg">
  <path d="M 692 467  C 695.36 467  698 469.64  698 473  C 698 476.36  695.36 479  692 479  C 688.64 479  686 476.36  686 473  C 686 469.64  688.64 467  692 467  Z " fill-rule="nonzero" fill="#ffffff" stroke="none" />
  <path d="M 692 467.5  C 695.08 467.5  697.5 469.92  697.5 473  C 697.5 476.08  695.08 478.5  692 478.5  C 688.92 478.5  686.5 476.08  686.5 473  C 686.5 469.92  688.92 467.5  692 467.5  Z " stroke-width="1" stroke="#797979" fill="none" />
  <path d="M 692 476  C 690.32 476  689 474.68  689 473  C 689 471.32  690.32 470  692 470  C 693.68 470  695 471.32  695 473  C 695 474.68  693.68 476  692 476  " fill-rule="nonzero" fill="#797979" stroke="none" />
</svg>