<?xml version="1.0" encoding="utf-8"?>
<svg version="1.1" xmlns:xlink="http://www.w3.org/1999/xlink" width="12px" height="12px" viewBox="381 471  12 12" xmlns="http://www.w3.org/2000/svg">
  <path d="M 387 471  C 390.36 471  393 473.64  393 477  C 393 480.36  390.36 483  387 483  C 383.64 483  381 480.36  381 477  C 381 473.64  383.64 471  387 471  Z " fill-rule="nonzero" fill="#ffffff" stroke="none" />
  <path d="M 387 471.5  C 390.08 471.5  392.5 473.92  392.5 477  C 392.5 480.08  390.08 482.5  387 482.5  C 383.92 482.5  381.5 480.08  381.5 477  C 381.5 473.92  383.92 471.5  387 471.5  Z " stroke-width="1" stroke="#797979" fill="none" />
  <path d="M 387 480  C 385.32 480  384 478.68  384 477  C 384 475.32  385.32 474  387 474  C 388.68 474  390 475.32  390 477  C 390 478.68  388.68 480  387 480  " fill-rule="nonzero" fill="#797979" stroke="none" />
</svg>