<?xml version="1.0" encoding="utf-8"?>
<svg version="1.1" xmlns:xlink="http://www.w3.org/1999/xlink" width="12px" height="12px" viewBox="980 467  12 12" xmlns="http://www.w3.org/2000/svg">
  <path d="M 986 467  C 989.36 467  992 469.64  992 473  C 992 476.36  989.36 479  986 479  C 982.64 479  980 476.36  980 473  C 980 469.64  982.64 467  986 467  Z " fill-rule="nonzero" fill="#ffffff" stroke="none" />
  <path d="M 986 467.5  C 989.08 467.5  991.5 469.92  991.5 473  C 991.5 476.08  989.08 478.5  986 478.5  C 982.92 478.5  980.5 476.08  980.5 473  C 980.5 469.92  982.92 467.5  986 467.5  Z " stroke-width="1" stroke="#797979" fill="none" />
  <path d="M 986 476  C 984.32 476  983 474.68  983 473  C 983 471.32  984.32 470  986 470  C 987.68 470  989 471.32  989 473  C 989 474.68  987.68 476  986 476  " fill-rule="nonzero" fill="#797979" stroke="none" />
</svg>