<?xml version="1.0" encoding="utf-8"?>
<svg version="1.1" xmlns:xlink="http://www.w3.org/1999/xlink" width="12px" height="12px" viewBox="687 713  12 12" xmlns="http://www.w3.org/2000/svg">
  <path d="M 693 713  C 696.36 713  699 715.64  699 719  C 699 722.36  696.36 725  693 725  C 689.64 725  687 722.36  687 719  C 687 715.64  689.64 713  693 713  Z " fill-rule="nonzero" fill="#ffffff" stroke="none" />
  <path d="M 693 713.5  C 696.08 713.5  698.5 715.92  698.5 719  C 698.5 722.08  696.08 724.5  693 724.5  C 689.92 724.5  687.5 722.08  687.5 719  C 687.5 715.92  689.92 713.5  693 713.5  Z " stroke-width="1" stroke="#797979" fill="none" />
  <path d="M 693 722  C 691.32 722  690 720.68  690 719  C 690 717.32  691.32 716  693 716  C 694.68 716  696 717.32  696 719  C 696 720.68  694.68 722  693 722  " fill-rule="nonzero" fill="#797979" stroke="none" />
</svg>